%TF.GenerationSoftware,KiCad,Pcbnew,(5.1.10)-1*%
%TF.CreationDate,2021-10-04T16:47:09-07:00*%
%TF.ProjectId,VFD,5646442e-6b69-4636-9164-5f7063625858,rev?*%
%TF.SameCoordinates,Original*%
%TF.FileFunction,Paste,Top*%
%TF.FilePolarity,Positive*%
%FSLAX46Y46*%
G04 Gerber Fmt 4.6, Leading zero omitted, Abs format (unit mm)*
G04 Created by KiCad (PCBNEW (5.1.10)-1) date 2021-10-04 16:47:09*
%MOMM*%
%LPD*%
G01*
G04 APERTURE LIST*
%ADD10C,0.010000*%
%ADD11R,3.210000X1.050000*%
%ADD12R,0.533400X1.701800*%
%ADD13R,2.900000X5.400000*%
%ADD14R,3.850000X5.500000*%
%ADD15R,2.200000X1.600000*%
%ADD16R,1.600000X2.200000*%
G04 APERTURE END LIST*
D10*
%TO.C,VR1*%
G36*
X65920000Y-103580000D02*
G01*
X64660000Y-103580000D01*
X64660000Y-102160000D01*
X65920000Y-102160000D01*
X65920000Y-103580000D01*
G37*
X65920000Y-103580000D02*
X64660000Y-103580000D01*
X64660000Y-102160000D01*
X65920000Y-102160000D01*
X65920000Y-103580000D01*
G36*
X63800000Y-103580000D02*
G01*
X62540000Y-103580000D01*
X62540000Y-102160000D01*
X63800000Y-102160000D01*
X63800000Y-103580000D01*
G37*
X63800000Y-103580000D02*
X62540000Y-103580000D01*
X62540000Y-102160000D01*
X63800000Y-102160000D01*
X63800000Y-103580000D01*
G36*
X68040000Y-103580000D02*
G01*
X66780000Y-103580000D01*
X66780000Y-102160000D01*
X68040000Y-102160000D01*
X68040000Y-103580000D01*
G37*
X68040000Y-103580000D02*
X66780000Y-103580000D01*
X66780000Y-102160000D01*
X68040000Y-102160000D01*
X68040000Y-103580000D01*
G36*
X70160000Y-103580000D02*
G01*
X68900000Y-103580000D01*
X68900000Y-102160000D01*
X70160000Y-102160000D01*
X70160000Y-103580000D01*
G37*
X70160000Y-103580000D02*
X68900000Y-103580000D01*
X68900000Y-102160000D01*
X70160000Y-102160000D01*
X70160000Y-103580000D01*
G36*
X65920000Y-105690000D02*
G01*
X64660000Y-105690000D01*
X64660000Y-104270000D01*
X65920000Y-104270000D01*
X65920000Y-105690000D01*
G37*
X65920000Y-105690000D02*
X64660000Y-105690000D01*
X64660000Y-104270000D01*
X65920000Y-104270000D01*
X65920000Y-105690000D01*
G36*
X65920000Y-107800000D02*
G01*
X64660000Y-107800000D01*
X64660000Y-106380000D01*
X65920000Y-106380000D01*
X65920000Y-107800000D01*
G37*
X65920000Y-107800000D02*
X64660000Y-107800000D01*
X64660000Y-106380000D01*
X65920000Y-106380000D01*
X65920000Y-107800000D01*
G36*
X65920000Y-101470000D02*
G01*
X64660000Y-101470000D01*
X64660000Y-100050000D01*
X65920000Y-100050000D01*
X65920000Y-101470000D01*
G37*
X65920000Y-101470000D02*
X64660000Y-101470000D01*
X64660000Y-100050000D01*
X65920000Y-100050000D01*
X65920000Y-101470000D01*
G36*
X65920000Y-99360000D02*
G01*
X64660000Y-99360000D01*
X64660000Y-97940000D01*
X65920000Y-97940000D01*
X65920000Y-99360000D01*
G37*
X65920000Y-99360000D02*
X64660000Y-99360000D01*
X64660000Y-97940000D01*
X65920000Y-97940000D01*
X65920000Y-99360000D01*
G36*
X63800000Y-105690000D02*
G01*
X62540000Y-105690000D01*
X62540000Y-104270000D01*
X63800000Y-104270000D01*
X63800000Y-105690000D01*
G37*
X63800000Y-105690000D02*
X62540000Y-105690000D01*
X62540000Y-104270000D01*
X63800000Y-104270000D01*
X63800000Y-105690000D01*
G36*
X63800000Y-107800000D02*
G01*
X62540000Y-107800000D01*
X62540000Y-106380000D01*
X63800000Y-106380000D01*
X63800000Y-107800000D01*
G37*
X63800000Y-107800000D02*
X62540000Y-107800000D01*
X62540000Y-106380000D01*
X63800000Y-106380000D01*
X63800000Y-107800000D01*
G36*
X63800000Y-101470000D02*
G01*
X62540000Y-101470000D01*
X62540000Y-100050000D01*
X63800000Y-100050000D01*
X63800000Y-101470000D01*
G37*
X63800000Y-101470000D02*
X62540000Y-101470000D01*
X62540000Y-100050000D01*
X63800000Y-100050000D01*
X63800000Y-101470000D01*
G36*
X63800000Y-99360000D02*
G01*
X62540000Y-99360000D01*
X62540000Y-97940000D01*
X63800000Y-97940000D01*
X63800000Y-99360000D01*
G37*
X63800000Y-99360000D02*
X62540000Y-99360000D01*
X62540000Y-97940000D01*
X63800000Y-97940000D01*
X63800000Y-99360000D01*
G36*
X68040000Y-101470000D02*
G01*
X66780000Y-101470000D01*
X66780000Y-100050000D01*
X68040000Y-100050000D01*
X68040000Y-101470000D01*
G37*
X68040000Y-101470000D02*
X66780000Y-101470000D01*
X66780000Y-100050000D01*
X68040000Y-100050000D01*
X68040000Y-101470000D01*
G36*
X68040000Y-99360000D02*
G01*
X66780000Y-99360000D01*
X66780000Y-97940000D01*
X68040000Y-97940000D01*
X68040000Y-99360000D01*
G37*
X68040000Y-99360000D02*
X66780000Y-99360000D01*
X66780000Y-97940000D01*
X68040000Y-97940000D01*
X68040000Y-99360000D01*
G36*
X68040000Y-105690000D02*
G01*
X66780000Y-105690000D01*
X66780000Y-104270000D01*
X68040000Y-104270000D01*
X68040000Y-105690000D01*
G37*
X68040000Y-105690000D02*
X66780000Y-105690000D01*
X66780000Y-104270000D01*
X68040000Y-104270000D01*
X68040000Y-105690000D01*
G36*
X70160000Y-105690000D02*
G01*
X68900000Y-105690000D01*
X68900000Y-104270000D01*
X70160000Y-104270000D01*
X70160000Y-105690000D01*
G37*
X70160000Y-105690000D02*
X68900000Y-105690000D01*
X68900000Y-104270000D01*
X70160000Y-104270000D01*
X70160000Y-105690000D01*
G36*
X70160000Y-107800000D02*
G01*
X68900000Y-107800000D01*
X68900000Y-106380000D01*
X70160000Y-106380000D01*
X70160000Y-107800000D01*
G37*
X70160000Y-107800000D02*
X68900000Y-107800000D01*
X68900000Y-106380000D01*
X70160000Y-106380000D01*
X70160000Y-107800000D01*
G36*
X68040000Y-107800000D02*
G01*
X66780000Y-107800000D01*
X66780000Y-106380000D01*
X68040000Y-106380000D01*
X68040000Y-107800000D01*
G37*
X68040000Y-107800000D02*
X66780000Y-107800000D01*
X66780000Y-106380000D01*
X68040000Y-106380000D01*
X68040000Y-107800000D01*
G36*
X70160000Y-101470000D02*
G01*
X68900000Y-101470000D01*
X68900000Y-100050000D01*
X70160000Y-100050000D01*
X70160000Y-101470000D01*
G37*
X70160000Y-101470000D02*
X68900000Y-101470000D01*
X68900000Y-100050000D01*
X70160000Y-100050000D01*
X70160000Y-101470000D01*
G36*
X70160000Y-99360000D02*
G01*
X68900000Y-99360000D01*
X68900000Y-97940000D01*
X70160000Y-97940000D01*
X70160000Y-99360000D01*
G37*
X70160000Y-99360000D02*
X68900000Y-99360000D01*
X68900000Y-97940000D01*
X70160000Y-97940000D01*
X70160000Y-99360000D01*
%TD*%
D11*
%TO.C,VR1*%
X75980000Y-106270000D03*
X75980000Y-104570000D03*
X75980000Y-102870000D03*
X75980000Y-101170000D03*
X75980000Y-99470000D03*
%TD*%
D12*
%TO.C,U2*%
X128905000Y-104089200D03*
X127635000Y-104089200D03*
X126365000Y-104089200D03*
X125095000Y-104089200D03*
X123825000Y-104089200D03*
X122555000Y-104089200D03*
X121285000Y-104089200D03*
X120015000Y-104089200D03*
X120015000Y-109270800D03*
X121285000Y-109270800D03*
X122555000Y-109270800D03*
X123825000Y-109270800D03*
X125095000Y-109270800D03*
X126365000Y-109270800D03*
X127635000Y-109270800D03*
X128905000Y-109270800D03*
%TD*%
%TO.C,U1*%
G36*
G01*
X143740000Y-104925000D02*
X143740000Y-104625000D01*
G75*
G02*
X143890000Y-104475000I150000J0D01*
G01*
X145540000Y-104475000D01*
G75*
G02*
X145690000Y-104625000I0J-150000D01*
G01*
X145690000Y-104925000D01*
G75*
G02*
X145540000Y-105075000I-150000J0D01*
G01*
X143890000Y-105075000D01*
G75*
G02*
X143740000Y-104925000I0J150000D01*
G01*
G37*
G36*
G01*
X143740000Y-106195000D02*
X143740000Y-105895000D01*
G75*
G02*
X143890000Y-105745000I150000J0D01*
G01*
X145540000Y-105745000D01*
G75*
G02*
X145690000Y-105895000I0J-150000D01*
G01*
X145690000Y-106195000D01*
G75*
G02*
X145540000Y-106345000I-150000J0D01*
G01*
X143890000Y-106345000D01*
G75*
G02*
X143740000Y-106195000I0J150000D01*
G01*
G37*
G36*
G01*
X143740000Y-107465000D02*
X143740000Y-107165000D01*
G75*
G02*
X143890000Y-107015000I150000J0D01*
G01*
X145540000Y-107015000D01*
G75*
G02*
X145690000Y-107165000I0J-150000D01*
G01*
X145690000Y-107465000D01*
G75*
G02*
X145540000Y-107615000I-150000J0D01*
G01*
X143890000Y-107615000D01*
G75*
G02*
X143740000Y-107465000I0J150000D01*
G01*
G37*
G36*
G01*
X143740000Y-108735000D02*
X143740000Y-108435000D01*
G75*
G02*
X143890000Y-108285000I150000J0D01*
G01*
X145540000Y-108285000D01*
G75*
G02*
X145690000Y-108435000I0J-150000D01*
G01*
X145690000Y-108735000D01*
G75*
G02*
X145540000Y-108885000I-150000J0D01*
G01*
X143890000Y-108885000D01*
G75*
G02*
X143740000Y-108735000I0J150000D01*
G01*
G37*
G36*
G01*
X138790000Y-108735000D02*
X138790000Y-108435000D01*
G75*
G02*
X138940000Y-108285000I150000J0D01*
G01*
X140590000Y-108285000D01*
G75*
G02*
X140740000Y-108435000I0J-150000D01*
G01*
X140740000Y-108735000D01*
G75*
G02*
X140590000Y-108885000I-150000J0D01*
G01*
X138940000Y-108885000D01*
G75*
G02*
X138790000Y-108735000I0J150000D01*
G01*
G37*
G36*
G01*
X138790000Y-107465000D02*
X138790000Y-107165000D01*
G75*
G02*
X138940000Y-107015000I150000J0D01*
G01*
X140590000Y-107015000D01*
G75*
G02*
X140740000Y-107165000I0J-150000D01*
G01*
X140740000Y-107465000D01*
G75*
G02*
X140590000Y-107615000I-150000J0D01*
G01*
X138940000Y-107615000D01*
G75*
G02*
X138790000Y-107465000I0J150000D01*
G01*
G37*
G36*
G01*
X138790000Y-106195000D02*
X138790000Y-105895000D01*
G75*
G02*
X138940000Y-105745000I150000J0D01*
G01*
X140590000Y-105745000D01*
G75*
G02*
X140740000Y-105895000I0J-150000D01*
G01*
X140740000Y-106195000D01*
G75*
G02*
X140590000Y-106345000I-150000J0D01*
G01*
X138940000Y-106345000D01*
G75*
G02*
X138790000Y-106195000I0J150000D01*
G01*
G37*
G36*
G01*
X138790000Y-104925000D02*
X138790000Y-104625000D01*
G75*
G02*
X138940000Y-104475000I150000J0D01*
G01*
X140590000Y-104475000D01*
G75*
G02*
X140740000Y-104625000I0J-150000D01*
G01*
X140740000Y-104925000D01*
G75*
G02*
X140590000Y-105075000I-150000J0D01*
G01*
X138940000Y-105075000D01*
G75*
G02*
X138790000Y-104925000I0J150000D01*
G01*
G37*
%TD*%
%TO.C,R5*%
G36*
G01*
X151230500Y-106494000D02*
X151029500Y-106494000D01*
G75*
G02*
X150950000Y-106414500I0J79500D01*
G01*
X150950000Y-106255500D01*
G75*
G02*
X151029500Y-106176000I79500J0D01*
G01*
X151230500Y-106176000D01*
G75*
G02*
X151310000Y-106255500I0J-79500D01*
G01*
X151310000Y-106414500D01*
G75*
G02*
X151230500Y-106494000I-79500J0D01*
G01*
G37*
G36*
G01*
X151230500Y-107184000D02*
X151029500Y-107184000D01*
G75*
G02*
X150950000Y-107104500I0J79500D01*
G01*
X150950000Y-106945500D01*
G75*
G02*
X151029500Y-106866000I79500J0D01*
G01*
X151230500Y-106866000D01*
G75*
G02*
X151310000Y-106945500I0J-79500D01*
G01*
X151310000Y-107104500D01*
G75*
G02*
X151230500Y-107184000I-79500J0D01*
G01*
G37*
%TD*%
%TO.C,R4*%
G36*
G01*
X133249500Y-105596000D02*
X133450500Y-105596000D01*
G75*
G02*
X133530000Y-105675500I0J-79500D01*
G01*
X133530000Y-105834500D01*
G75*
G02*
X133450500Y-105914000I-79500J0D01*
G01*
X133249500Y-105914000D01*
G75*
G02*
X133170000Y-105834500I0J79500D01*
G01*
X133170000Y-105675500D01*
G75*
G02*
X133249500Y-105596000I79500J0D01*
G01*
G37*
G36*
G01*
X133249500Y-104906000D02*
X133450500Y-104906000D01*
G75*
G02*
X133530000Y-104985500I0J-79500D01*
G01*
X133530000Y-105144500D01*
G75*
G02*
X133450500Y-105224000I-79500J0D01*
G01*
X133249500Y-105224000D01*
G75*
G02*
X133170000Y-105144500I0J79500D01*
G01*
X133170000Y-104985500D01*
G75*
G02*
X133249500Y-104906000I79500J0D01*
G01*
G37*
%TD*%
%TO.C,R3*%
G36*
G01*
X119480500Y-112844000D02*
X119279500Y-112844000D01*
G75*
G02*
X119200000Y-112764500I0J79500D01*
G01*
X119200000Y-112605500D01*
G75*
G02*
X119279500Y-112526000I79500J0D01*
G01*
X119480500Y-112526000D01*
G75*
G02*
X119560000Y-112605500I0J-79500D01*
G01*
X119560000Y-112764500D01*
G75*
G02*
X119480500Y-112844000I-79500J0D01*
G01*
G37*
G36*
G01*
X119480500Y-113534000D02*
X119279500Y-113534000D01*
G75*
G02*
X119200000Y-113454500I0J79500D01*
G01*
X119200000Y-113295500D01*
G75*
G02*
X119279500Y-113216000I79500J0D01*
G01*
X119480500Y-113216000D01*
G75*
G02*
X119560000Y-113295500I0J-79500D01*
G01*
X119560000Y-113454500D01*
G75*
G02*
X119480500Y-113534000I-79500J0D01*
G01*
G37*
%TD*%
%TO.C,R2*%
G36*
G01*
X80774000Y-106579500D02*
X80774000Y-106780500D01*
G75*
G02*
X80694500Y-106860000I-79500J0D01*
G01*
X80535500Y-106860000D01*
G75*
G02*
X80456000Y-106780500I0J79500D01*
G01*
X80456000Y-106579500D01*
G75*
G02*
X80535500Y-106500000I79500J0D01*
G01*
X80694500Y-106500000D01*
G75*
G02*
X80774000Y-106579500I0J-79500D01*
G01*
G37*
G36*
G01*
X81464000Y-106579500D02*
X81464000Y-106780500D01*
G75*
G02*
X81384500Y-106860000I-79500J0D01*
G01*
X81225500Y-106860000D01*
G75*
G02*
X81146000Y-106780500I0J79500D01*
G01*
X81146000Y-106579500D01*
G75*
G02*
X81225500Y-106500000I79500J0D01*
G01*
X81384500Y-106500000D01*
G75*
G02*
X81464000Y-106579500I0J-79500D01*
G01*
G37*
%TD*%
%TO.C,R1*%
G36*
G01*
X84904000Y-106579500D02*
X84904000Y-106780500D01*
G75*
G02*
X84824500Y-106860000I-79500J0D01*
G01*
X84665500Y-106860000D01*
G75*
G02*
X84586000Y-106780500I0J79500D01*
G01*
X84586000Y-106579500D01*
G75*
G02*
X84665500Y-106500000I79500J0D01*
G01*
X84824500Y-106500000D01*
G75*
G02*
X84904000Y-106579500I0J-79500D01*
G01*
G37*
G36*
G01*
X85594000Y-106579500D02*
X85594000Y-106780500D01*
G75*
G02*
X85514500Y-106860000I-79500J0D01*
G01*
X85355500Y-106860000D01*
G75*
G02*
X85276000Y-106780500I0J79500D01*
G01*
X85276000Y-106579500D01*
G75*
G02*
X85355500Y-106500000I79500J0D01*
G01*
X85514500Y-106500000D01*
G75*
G02*
X85594000Y-106579500I0J-79500D01*
G01*
G37*
%TD*%
D13*
%TO.C,L2*%
X130810000Y-121920000D03*
X120910000Y-121920000D03*
%TD*%
D14*
%TO.C,L1*%
X47095000Y-115570000D03*
X57045000Y-115570000D03*
%TD*%
%TO.C,D3*%
G36*
G01*
X148776000Y-102970500D02*
X148776000Y-102769500D01*
G75*
G02*
X148855500Y-102690000I79500J0D01*
G01*
X149014500Y-102690000D01*
G75*
G02*
X149094000Y-102769500I0J-79500D01*
G01*
X149094000Y-102970500D01*
G75*
G02*
X149014500Y-103050000I-79500J0D01*
G01*
X148855500Y-103050000D01*
G75*
G02*
X148776000Y-102970500I0J79500D01*
G01*
G37*
G36*
G01*
X148086000Y-102970500D02*
X148086000Y-102769500D01*
G75*
G02*
X148165500Y-102690000I79500J0D01*
G01*
X148324500Y-102690000D01*
G75*
G02*
X148404000Y-102769500I0J-79500D01*
G01*
X148404000Y-102970500D01*
G75*
G02*
X148324500Y-103050000I-79500J0D01*
G01*
X148165500Y-103050000D01*
G75*
G02*
X148086000Y-102970500I0J79500D01*
G01*
G37*
%TD*%
%TO.C,D2*%
G36*
G01*
X134792500Y-112840000D02*
X134447500Y-112840000D01*
G75*
G02*
X134300000Y-112692500I0J147500D01*
G01*
X134300000Y-112397500D01*
G75*
G02*
X134447500Y-112250000I147500J0D01*
G01*
X134792500Y-112250000D01*
G75*
G02*
X134940000Y-112397500I0J-147500D01*
G01*
X134940000Y-112692500D01*
G75*
G02*
X134792500Y-112840000I-147500J0D01*
G01*
G37*
G36*
G01*
X134792500Y-113810000D02*
X134447500Y-113810000D01*
G75*
G02*
X134300000Y-113662500I0J147500D01*
G01*
X134300000Y-113367500D01*
G75*
G02*
X134447500Y-113220000I147500J0D01*
G01*
X134792500Y-113220000D01*
G75*
G02*
X134940000Y-113367500I0J-147500D01*
G01*
X134940000Y-113662500D01*
G75*
G02*
X134792500Y-113810000I-147500J0D01*
G01*
G37*
%TD*%
%TO.C,D1*%
G36*
G01*
X81380500Y-110304000D02*
X81179500Y-110304000D01*
G75*
G02*
X81100000Y-110224500I0J79500D01*
G01*
X81100000Y-110065500D01*
G75*
G02*
X81179500Y-109986000I79500J0D01*
G01*
X81380500Y-109986000D01*
G75*
G02*
X81460000Y-110065500I0J-79500D01*
G01*
X81460000Y-110224500D01*
G75*
G02*
X81380500Y-110304000I-79500J0D01*
G01*
G37*
G36*
G01*
X81380500Y-110994000D02*
X81179500Y-110994000D01*
G75*
G02*
X81100000Y-110914500I0J79500D01*
G01*
X81100000Y-110755500D01*
G75*
G02*
X81179500Y-110676000I79500J0D01*
G01*
X81380500Y-110676000D01*
G75*
G02*
X81460000Y-110755500I0J-79500D01*
G01*
X81460000Y-110914500D01*
G75*
G02*
X81380500Y-110994000I-79500J0D01*
G01*
G37*
%TD*%
D15*
%TO.C,C8*%
X143740000Y-113030000D03*
X140740000Y-113030000D03*
%TD*%
%TO.C,C7*%
G36*
G01*
X133450500Y-102684000D02*
X133249500Y-102684000D01*
G75*
G02*
X133170000Y-102604500I0J79500D01*
G01*
X133170000Y-102445500D01*
G75*
G02*
X133249500Y-102366000I79500J0D01*
G01*
X133450500Y-102366000D01*
G75*
G02*
X133530000Y-102445500I0J-79500D01*
G01*
X133530000Y-102604500D01*
G75*
G02*
X133450500Y-102684000I-79500J0D01*
G01*
G37*
G36*
G01*
X133450500Y-103374000D02*
X133249500Y-103374000D01*
G75*
G02*
X133170000Y-103294500I0J79500D01*
G01*
X133170000Y-103135500D01*
G75*
G02*
X133249500Y-103056000I79500J0D01*
G01*
X133450500Y-103056000D01*
G75*
G02*
X133530000Y-103135500I0J-79500D01*
G01*
X133530000Y-103294500D01*
G75*
G02*
X133450500Y-103374000I-79500J0D01*
G01*
G37*
%TD*%
D16*
%TO.C,C6*%
X90170000Y-110720000D03*
X90170000Y-107720000D03*
%TD*%
%TO.C,C5*%
G36*
G01*
X84989500Y-110676000D02*
X85190500Y-110676000D01*
G75*
G02*
X85270000Y-110755500I0J-79500D01*
G01*
X85270000Y-110914500D01*
G75*
G02*
X85190500Y-110994000I-79500J0D01*
G01*
X84989500Y-110994000D01*
G75*
G02*
X84910000Y-110914500I0J79500D01*
G01*
X84910000Y-110755500D01*
G75*
G02*
X84989500Y-110676000I79500J0D01*
G01*
G37*
G36*
G01*
X84989500Y-109986000D02*
X85190500Y-109986000D01*
G75*
G02*
X85270000Y-110065500I0J-79500D01*
G01*
X85270000Y-110224500D01*
G75*
G02*
X85190500Y-110304000I-79500J0D01*
G01*
X84989500Y-110304000D01*
G75*
G02*
X84910000Y-110224500I0J79500D01*
G01*
X84910000Y-110065500D01*
G75*
G02*
X84989500Y-109986000I79500J0D01*
G01*
G37*
%TD*%
%TO.C,C4*%
X55880000Y-104370000D03*
X55880000Y-101370000D03*
%TD*%
%TO.C,C3*%
G36*
G01*
X51969500Y-103056000D02*
X52170500Y-103056000D01*
G75*
G02*
X52250000Y-103135500I0J-79500D01*
G01*
X52250000Y-103294500D01*
G75*
G02*
X52170500Y-103374000I-79500J0D01*
G01*
X51969500Y-103374000D01*
G75*
G02*
X51890000Y-103294500I0J79500D01*
G01*
X51890000Y-103135500D01*
G75*
G02*
X51969500Y-103056000I79500J0D01*
G01*
G37*
G36*
G01*
X51969500Y-102366000D02*
X52170500Y-102366000D01*
G75*
G02*
X52250000Y-102445500I0J-79500D01*
G01*
X52250000Y-102604500D01*
G75*
G02*
X52170500Y-102684000I-79500J0D01*
G01*
X51969500Y-102684000D01*
G75*
G02*
X51890000Y-102604500I0J79500D01*
G01*
X51890000Y-102445500D01*
G75*
G02*
X51969500Y-102366000I79500J0D01*
G01*
G37*
%TD*%
%TO.C,C2*%
G36*
G01*
X74829500Y-111946000D02*
X75030500Y-111946000D01*
G75*
G02*
X75110000Y-112025500I0J-79500D01*
G01*
X75110000Y-112184500D01*
G75*
G02*
X75030500Y-112264000I-79500J0D01*
G01*
X74829500Y-112264000D01*
G75*
G02*
X74750000Y-112184500I0J79500D01*
G01*
X74750000Y-112025500D01*
G75*
G02*
X74829500Y-111946000I79500J0D01*
G01*
G37*
G36*
G01*
X74829500Y-111256000D02*
X75030500Y-111256000D01*
G75*
G02*
X75110000Y-111335500I0J-79500D01*
G01*
X75110000Y-111494500D01*
G75*
G02*
X75030500Y-111574000I-79500J0D01*
G01*
X74829500Y-111574000D01*
G75*
G02*
X74750000Y-111494500I0J79500D01*
G01*
X74750000Y-111335500D01*
G75*
G02*
X74829500Y-111256000I79500J0D01*
G01*
G37*
%TD*%
D15*
%TO.C,C1*%
X70080000Y-113030000D03*
X67080000Y-113030000D03*
%TD*%
M02*
