%TF.GenerationSoftware,KiCad,Pcbnew,(5.1.10)-1*%
%TF.CreationDate,2021-10-04T16:47:09-07:00*%
%TF.ProjectId,VFD,5646442e-6b69-4636-9164-5f7063625858,rev?*%
%TF.SameCoordinates,Original*%
%TF.FileFunction,Soldermask,Top*%
%TF.FilePolarity,Negative*%
%FSLAX46Y46*%
G04 Gerber Fmt 4.6, Leading zero omitted, Abs format (unit mm)*
G04 Created by KiCad (PCBNEW (5.1.10)-1) date 2021-10-04 16:47:09*
%MOMM*%
%LPD*%
G01*
G04 APERTURE LIST*
%ADD10C,3.000000*%
%ADD11C,1.600000*%
%ADD12R,1.600000X1.600000*%
%ADD13R,3.210000X1.050000*%
%ADD14R,8.460000X10.530000*%
%ADD15C,1.400000*%
%ADD16R,0.533400X1.701800*%
%ADD17R,2.900000X5.400000*%
%ADD18R,3.850000X5.500000*%
%ADD19O,1.950000X1.700000*%
%ADD20R,2.200000X1.600000*%
%ADD21R,1.600000X2.200000*%
G04 APERTURE END LIST*
D10*
%TO.C,*%
X119380000Y-133350000D03*
%TD*%
%TO.C,*%
X128270000Y-135890000D03*
%TD*%
%TO.C,*%
X123190000Y-135890000D03*
%TD*%
%TO.C,*%
X123190000Y-130810000D03*
%TD*%
%TO.C,*%
X128270000Y-130810000D03*
%TD*%
%TO.C,*%
X133350000Y-130810000D03*
%TD*%
%TO.C,*%
X133350000Y-135890000D03*
%TD*%
%TO.C,*%
X138430000Y-129540000D03*
%TD*%
%TO.C,*%
X138430000Y-124460000D03*
%TD*%
%TO.C,*%
X138430000Y-134620000D03*
%TD*%
%TO.C,*%
X143510000Y-134620000D03*
%TD*%
%TO.C,*%
X143510000Y-129540000D03*
%TD*%
%TO.C,*%
X143510000Y-124460000D03*
%TD*%
%TO.C,*%
X148590000Y-124460000D03*
%TD*%
%TO.C,*%
X148590000Y-129540000D03*
%TD*%
%TO.C,*%
X148590000Y-134620000D03*
%TD*%
%TO.C,*%
X153670000Y-134620000D03*
%TD*%
%TO.C,*%
X153670000Y-129540000D03*
%TD*%
%TO.C,*%
X153670000Y-124460000D03*
%TD*%
%TO.C,*%
X158750000Y-134620000D03*
%TD*%
%TO.C,*%
X158750000Y-129540000D03*
%TD*%
%TO.C,*%
X158750000Y-124460000D03*
%TD*%
%TO.C,*%
X171450000Y-104140000D03*
%TD*%
%TO.C,*%
X171450000Y-109220000D03*
%TD*%
%TO.C,*%
X171450000Y-114300000D03*
%TD*%
%TO.C,*%
X163830000Y-129540000D03*
%TD*%
%TO.C,*%
X163830000Y-124460000D03*
%TD*%
%TO.C,*%
X168910000Y-124460000D03*
%TD*%
%TO.C,*%
X166370000Y-104140000D03*
%TD*%
%TO.C,*%
X166370000Y-109220000D03*
%TD*%
%TO.C,*%
X166370000Y-114300000D03*
%TD*%
%TO.C,*%
X168910000Y-119380000D03*
%TD*%
%TO.C,*%
X163830000Y-119380000D03*
%TD*%
%TO.C,*%
X158750000Y-119380000D03*
%TD*%
%TO.C,*%
X153670000Y-119380000D03*
%TD*%
%TO.C,*%
X148590000Y-119380000D03*
%TD*%
%TO.C,*%
X143510000Y-119380000D03*
%TD*%
%TO.C,*%
X138430000Y-119380000D03*
%TD*%
D11*
%TO.C,REF\u002A\u002A*%
X107950000Y-105410000D03*
D12*
X115570000Y-133350000D03*
D11*
X115570000Y-130810000D03*
X115570000Y-128270000D03*
X115570000Y-125730000D03*
X115570000Y-123190000D03*
X115570000Y-120650000D03*
X115570000Y-118110000D03*
X115570000Y-115570000D03*
X115570000Y-113030000D03*
X115570000Y-110490000D03*
X115570000Y-107950000D03*
X115570000Y-105410000D03*
X113030000Y-105410000D03*
X110490000Y-105410000D03*
X105410000Y-105410000D03*
X102870000Y-105410000D03*
X100330000Y-105410000D03*
X100330000Y-107950000D03*
X100330000Y-110490000D03*
X100330000Y-113030000D03*
X100330000Y-115570000D03*
X100330000Y-118110000D03*
X100330000Y-120650000D03*
X100330000Y-123190000D03*
X100330000Y-125730000D03*
X100330000Y-128270000D03*
X100330000Y-130810000D03*
X100330000Y-133350000D03*
X113030000Y-123190000D03*
X102870000Y-123190000D03*
%TD*%
D13*
%TO.C,VR1*%
X75980000Y-106270000D03*
X75980000Y-104570000D03*
X75980000Y-102870000D03*
X75980000Y-101170000D03*
X75980000Y-99470000D03*
D14*
X66350000Y-102870000D03*
%TD*%
D11*
%TO.C,U4*%
X46990000Y-78740000D03*
X46990000Y-81280000D03*
X49530000Y-78740000D03*
X49530000Y-81280000D03*
X52070000Y-78740000D03*
X52070000Y-81280000D03*
X54610000Y-78740000D03*
X54610000Y-81280000D03*
X57150000Y-78740000D03*
X57150000Y-81280000D03*
X44450000Y-53340000D03*
X44450000Y-55880000D03*
X44450000Y-58420000D03*
X44450000Y-60960000D03*
X44450000Y-63500000D03*
X44450000Y-66040000D03*
X44450000Y-68580000D03*
X44450000Y-71120000D03*
X44450000Y-73660000D03*
X44450000Y-76200000D03*
X44450000Y-78740000D03*
X44450000Y-81280000D03*
X44450000Y-83820000D03*
X57150000Y-55880000D03*
X59690000Y-53340000D03*
X59690000Y-55880000D03*
X59690000Y-58420000D03*
X59690000Y-60960000D03*
X59690000Y-63500000D03*
X59690000Y-66040000D03*
X59690000Y-68580000D03*
X59690000Y-71120000D03*
X59690000Y-73660000D03*
X59690000Y-76200000D03*
X59690000Y-78740000D03*
X59690000Y-81280000D03*
X59690000Y-83820000D03*
X44450000Y-86360000D03*
X46990000Y-86360000D03*
X49530000Y-86360000D03*
X59690000Y-86360000D03*
X57150000Y-86360000D03*
X54610000Y-86360000D03*
X52070000Y-86360000D03*
%TD*%
D15*
%TO.C,U3*%
X162560000Y-99060000D03*
X160560000Y-99060000D03*
X158560000Y-99060000D03*
X152560000Y-99060000D03*
X150560000Y-99060000D03*
X148560000Y-99060000D03*
X146560000Y-99060000D03*
X144560000Y-99060000D03*
X142560000Y-99060000D03*
X140560000Y-99060000D03*
X138560000Y-99060000D03*
X136560000Y-99060000D03*
X134560000Y-99060000D03*
X132560000Y-99060000D03*
X130560000Y-99060000D03*
X128560000Y-99060000D03*
X126560000Y-99060000D03*
X124560000Y-99060000D03*
X94560000Y-99060000D03*
X92560000Y-99060000D03*
X90560000Y-99060000D03*
%TD*%
D16*
%TO.C,U2*%
X128905000Y-104089200D03*
X127635000Y-104089200D03*
X126365000Y-104089200D03*
X125095000Y-104089200D03*
X123825000Y-104089200D03*
X122555000Y-104089200D03*
X121285000Y-104089200D03*
X120015000Y-104089200D03*
X120015000Y-109270800D03*
X121285000Y-109270800D03*
X122555000Y-109270800D03*
X123825000Y-109270800D03*
X125095000Y-109270800D03*
X126365000Y-109270800D03*
X127635000Y-109270800D03*
X128905000Y-109270800D03*
%TD*%
%TO.C,U1*%
G36*
G01*
X143740000Y-104925000D02*
X143740000Y-104625000D01*
G75*
G02*
X143890000Y-104475000I150000J0D01*
G01*
X145540000Y-104475000D01*
G75*
G02*
X145690000Y-104625000I0J-150000D01*
G01*
X145690000Y-104925000D01*
G75*
G02*
X145540000Y-105075000I-150000J0D01*
G01*
X143890000Y-105075000D01*
G75*
G02*
X143740000Y-104925000I0J150000D01*
G01*
G37*
G36*
G01*
X143740000Y-106195000D02*
X143740000Y-105895000D01*
G75*
G02*
X143890000Y-105745000I150000J0D01*
G01*
X145540000Y-105745000D01*
G75*
G02*
X145690000Y-105895000I0J-150000D01*
G01*
X145690000Y-106195000D01*
G75*
G02*
X145540000Y-106345000I-150000J0D01*
G01*
X143890000Y-106345000D01*
G75*
G02*
X143740000Y-106195000I0J150000D01*
G01*
G37*
G36*
G01*
X143740000Y-107465000D02*
X143740000Y-107165000D01*
G75*
G02*
X143890000Y-107015000I150000J0D01*
G01*
X145540000Y-107015000D01*
G75*
G02*
X145690000Y-107165000I0J-150000D01*
G01*
X145690000Y-107465000D01*
G75*
G02*
X145540000Y-107615000I-150000J0D01*
G01*
X143890000Y-107615000D01*
G75*
G02*
X143740000Y-107465000I0J150000D01*
G01*
G37*
G36*
G01*
X143740000Y-108735000D02*
X143740000Y-108435000D01*
G75*
G02*
X143890000Y-108285000I150000J0D01*
G01*
X145540000Y-108285000D01*
G75*
G02*
X145690000Y-108435000I0J-150000D01*
G01*
X145690000Y-108735000D01*
G75*
G02*
X145540000Y-108885000I-150000J0D01*
G01*
X143890000Y-108885000D01*
G75*
G02*
X143740000Y-108735000I0J150000D01*
G01*
G37*
G36*
G01*
X138790000Y-108735000D02*
X138790000Y-108435000D01*
G75*
G02*
X138940000Y-108285000I150000J0D01*
G01*
X140590000Y-108285000D01*
G75*
G02*
X140740000Y-108435000I0J-150000D01*
G01*
X140740000Y-108735000D01*
G75*
G02*
X140590000Y-108885000I-150000J0D01*
G01*
X138940000Y-108885000D01*
G75*
G02*
X138790000Y-108735000I0J150000D01*
G01*
G37*
G36*
G01*
X138790000Y-107465000D02*
X138790000Y-107165000D01*
G75*
G02*
X138940000Y-107015000I150000J0D01*
G01*
X140590000Y-107015000D01*
G75*
G02*
X140740000Y-107165000I0J-150000D01*
G01*
X140740000Y-107465000D01*
G75*
G02*
X140590000Y-107615000I-150000J0D01*
G01*
X138940000Y-107615000D01*
G75*
G02*
X138790000Y-107465000I0J150000D01*
G01*
G37*
G36*
G01*
X138790000Y-106195000D02*
X138790000Y-105895000D01*
G75*
G02*
X138940000Y-105745000I150000J0D01*
G01*
X140590000Y-105745000D01*
G75*
G02*
X140740000Y-105895000I0J-150000D01*
G01*
X140740000Y-106195000D01*
G75*
G02*
X140590000Y-106345000I-150000J0D01*
G01*
X138940000Y-106345000D01*
G75*
G02*
X138790000Y-106195000I0J150000D01*
G01*
G37*
G36*
G01*
X138790000Y-104925000D02*
X138790000Y-104625000D01*
G75*
G02*
X138940000Y-104475000I150000J0D01*
G01*
X140590000Y-104475000D01*
G75*
G02*
X140740000Y-104625000I0J-150000D01*
G01*
X140740000Y-104925000D01*
G75*
G02*
X140590000Y-105075000I-150000J0D01*
G01*
X138940000Y-105075000D01*
G75*
G02*
X138790000Y-104925000I0J150000D01*
G01*
G37*
%TD*%
%TO.C,R5*%
G36*
G01*
X151230000Y-106590000D02*
X151030000Y-106590000D01*
G75*
G02*
X150930000Y-106490000I0J100000D01*
G01*
X150930000Y-106230000D01*
G75*
G02*
X151030000Y-106130000I100000J0D01*
G01*
X151230000Y-106130000D01*
G75*
G02*
X151330000Y-106230000I0J-100000D01*
G01*
X151330000Y-106490000D01*
G75*
G02*
X151230000Y-106590000I-100000J0D01*
G01*
G37*
G36*
G01*
X151230000Y-107230000D02*
X151030000Y-107230000D01*
G75*
G02*
X150930000Y-107130000I0J100000D01*
G01*
X150930000Y-106870000D01*
G75*
G02*
X151030000Y-106770000I100000J0D01*
G01*
X151230000Y-106770000D01*
G75*
G02*
X151330000Y-106870000I0J-100000D01*
G01*
X151330000Y-107130000D01*
G75*
G02*
X151230000Y-107230000I-100000J0D01*
G01*
G37*
%TD*%
%TO.C,R4*%
G36*
G01*
X133250000Y-105500000D02*
X133450000Y-105500000D01*
G75*
G02*
X133550000Y-105600000I0J-100000D01*
G01*
X133550000Y-105860000D01*
G75*
G02*
X133450000Y-105960000I-100000J0D01*
G01*
X133250000Y-105960000D01*
G75*
G02*
X133150000Y-105860000I0J100000D01*
G01*
X133150000Y-105600000D01*
G75*
G02*
X133250000Y-105500000I100000J0D01*
G01*
G37*
G36*
G01*
X133250000Y-104860000D02*
X133450000Y-104860000D01*
G75*
G02*
X133550000Y-104960000I0J-100000D01*
G01*
X133550000Y-105220000D01*
G75*
G02*
X133450000Y-105320000I-100000J0D01*
G01*
X133250000Y-105320000D01*
G75*
G02*
X133150000Y-105220000I0J100000D01*
G01*
X133150000Y-104960000D01*
G75*
G02*
X133250000Y-104860000I100000J0D01*
G01*
G37*
%TD*%
%TO.C,R3*%
G36*
G01*
X119480000Y-112940000D02*
X119280000Y-112940000D01*
G75*
G02*
X119180000Y-112840000I0J100000D01*
G01*
X119180000Y-112580000D01*
G75*
G02*
X119280000Y-112480000I100000J0D01*
G01*
X119480000Y-112480000D01*
G75*
G02*
X119580000Y-112580000I0J-100000D01*
G01*
X119580000Y-112840000D01*
G75*
G02*
X119480000Y-112940000I-100000J0D01*
G01*
G37*
G36*
G01*
X119480000Y-113580000D02*
X119280000Y-113580000D01*
G75*
G02*
X119180000Y-113480000I0J100000D01*
G01*
X119180000Y-113220000D01*
G75*
G02*
X119280000Y-113120000I100000J0D01*
G01*
X119480000Y-113120000D01*
G75*
G02*
X119580000Y-113220000I0J-100000D01*
G01*
X119580000Y-113480000D01*
G75*
G02*
X119480000Y-113580000I-100000J0D01*
G01*
G37*
%TD*%
%TO.C,R2*%
G36*
G01*
X80870000Y-106580000D02*
X80870000Y-106780000D01*
G75*
G02*
X80770000Y-106880000I-100000J0D01*
G01*
X80510000Y-106880000D01*
G75*
G02*
X80410000Y-106780000I0J100000D01*
G01*
X80410000Y-106580000D01*
G75*
G02*
X80510000Y-106480000I100000J0D01*
G01*
X80770000Y-106480000D01*
G75*
G02*
X80870000Y-106580000I0J-100000D01*
G01*
G37*
G36*
G01*
X81510000Y-106580000D02*
X81510000Y-106780000D01*
G75*
G02*
X81410000Y-106880000I-100000J0D01*
G01*
X81150000Y-106880000D01*
G75*
G02*
X81050000Y-106780000I0J100000D01*
G01*
X81050000Y-106580000D01*
G75*
G02*
X81150000Y-106480000I100000J0D01*
G01*
X81410000Y-106480000D01*
G75*
G02*
X81510000Y-106580000I0J-100000D01*
G01*
G37*
%TD*%
%TO.C,R1*%
G36*
G01*
X85000000Y-106580000D02*
X85000000Y-106780000D01*
G75*
G02*
X84900000Y-106880000I-100000J0D01*
G01*
X84640000Y-106880000D01*
G75*
G02*
X84540000Y-106780000I0J100000D01*
G01*
X84540000Y-106580000D01*
G75*
G02*
X84640000Y-106480000I100000J0D01*
G01*
X84900000Y-106480000D01*
G75*
G02*
X85000000Y-106580000I0J-100000D01*
G01*
G37*
G36*
G01*
X85640000Y-106580000D02*
X85640000Y-106780000D01*
G75*
G02*
X85540000Y-106880000I-100000J0D01*
G01*
X85280000Y-106880000D01*
G75*
G02*
X85180000Y-106780000I0J100000D01*
G01*
X85180000Y-106580000D01*
G75*
G02*
X85280000Y-106480000I100000J0D01*
G01*
X85540000Y-106480000D01*
G75*
G02*
X85640000Y-106580000I0J-100000D01*
G01*
G37*
%TD*%
D17*
%TO.C,L2*%
X130810000Y-121920000D03*
X120910000Y-121920000D03*
%TD*%
D18*
%TO.C,L1*%
X47095000Y-115570000D03*
X57045000Y-115570000D03*
%TD*%
D19*
%TO.C,J3*%
X157480000Y-112910000D03*
X157480000Y-110410000D03*
X157480000Y-107910000D03*
G36*
G01*
X156755000Y-104560000D02*
X158205000Y-104560000D01*
G75*
G02*
X158455000Y-104810000I0J-250000D01*
G01*
X158455000Y-106010000D01*
G75*
G02*
X158205000Y-106260000I-250000J0D01*
G01*
X156755000Y-106260000D01*
G75*
G02*
X156505000Y-106010000I0J250000D01*
G01*
X156505000Y-104810000D01*
G75*
G02*
X156755000Y-104560000I250000J0D01*
G01*
G37*
%TD*%
%TO.C,J2*%
X96520000Y-114220000D03*
X96520000Y-111720000D03*
X96520000Y-109220000D03*
G36*
G01*
X95795000Y-105870000D02*
X97245000Y-105870000D01*
G75*
G02*
X97495000Y-106120000I0J-250000D01*
G01*
X97495000Y-107320000D01*
G75*
G02*
X97245000Y-107570000I-250000J0D01*
G01*
X95795000Y-107570000D01*
G75*
G02*
X95545000Y-107320000I0J250000D01*
G01*
X95545000Y-106120000D01*
G75*
G02*
X95795000Y-105870000I250000J0D01*
G01*
G37*
%TD*%
%TO.C,J1*%
X35560000Y-91520000D03*
X35560000Y-94020000D03*
X35560000Y-96520000D03*
X35560000Y-99020000D03*
X35560000Y-101520000D03*
G36*
G01*
X36285000Y-104870000D02*
X34835000Y-104870000D01*
G75*
G02*
X34585000Y-104620000I0J250000D01*
G01*
X34585000Y-103420000D01*
G75*
G02*
X34835000Y-103170000I250000J0D01*
G01*
X36285000Y-103170000D01*
G75*
G02*
X36535000Y-103420000I0J-250000D01*
G01*
X36535000Y-104620000D01*
G75*
G02*
X36285000Y-104870000I-250000J0D01*
G01*
G37*
%TD*%
%TO.C,D3*%
G36*
G01*
X148680000Y-102970000D02*
X148680000Y-102770000D01*
G75*
G02*
X148780000Y-102670000I100000J0D01*
G01*
X149040000Y-102670000D01*
G75*
G02*
X149140000Y-102770000I0J-100000D01*
G01*
X149140000Y-102970000D01*
G75*
G02*
X149040000Y-103070000I-100000J0D01*
G01*
X148780000Y-103070000D01*
G75*
G02*
X148680000Y-102970000I0J100000D01*
G01*
G37*
G36*
G01*
X148040000Y-102970000D02*
X148040000Y-102770000D01*
G75*
G02*
X148140000Y-102670000I100000J0D01*
G01*
X148400000Y-102670000D01*
G75*
G02*
X148500000Y-102770000I0J-100000D01*
G01*
X148500000Y-102970000D01*
G75*
G02*
X148400000Y-103070000I-100000J0D01*
G01*
X148140000Y-103070000D01*
G75*
G02*
X148040000Y-102970000I0J100000D01*
G01*
G37*
%TD*%
%TO.C,D2*%
G36*
G01*
X134792500Y-112840000D02*
X134447500Y-112840000D01*
G75*
G02*
X134300000Y-112692500I0J147500D01*
G01*
X134300000Y-112397500D01*
G75*
G02*
X134447500Y-112250000I147500J0D01*
G01*
X134792500Y-112250000D01*
G75*
G02*
X134940000Y-112397500I0J-147500D01*
G01*
X134940000Y-112692500D01*
G75*
G02*
X134792500Y-112840000I-147500J0D01*
G01*
G37*
G36*
G01*
X134792500Y-113810000D02*
X134447500Y-113810000D01*
G75*
G02*
X134300000Y-113662500I0J147500D01*
G01*
X134300000Y-113367500D01*
G75*
G02*
X134447500Y-113220000I147500J0D01*
G01*
X134792500Y-113220000D01*
G75*
G02*
X134940000Y-113367500I0J-147500D01*
G01*
X134940000Y-113662500D01*
G75*
G02*
X134792500Y-113810000I-147500J0D01*
G01*
G37*
%TD*%
%TO.C,D1*%
G36*
G01*
X81380000Y-110400000D02*
X81180000Y-110400000D01*
G75*
G02*
X81080000Y-110300000I0J100000D01*
G01*
X81080000Y-110040000D01*
G75*
G02*
X81180000Y-109940000I100000J0D01*
G01*
X81380000Y-109940000D01*
G75*
G02*
X81480000Y-110040000I0J-100000D01*
G01*
X81480000Y-110300000D01*
G75*
G02*
X81380000Y-110400000I-100000J0D01*
G01*
G37*
G36*
G01*
X81380000Y-111040000D02*
X81180000Y-111040000D01*
G75*
G02*
X81080000Y-110940000I0J100000D01*
G01*
X81080000Y-110680000D01*
G75*
G02*
X81180000Y-110580000I100000J0D01*
G01*
X81380000Y-110580000D01*
G75*
G02*
X81480000Y-110680000I0J-100000D01*
G01*
X81480000Y-110940000D01*
G75*
G02*
X81380000Y-111040000I-100000J0D01*
G01*
G37*
%TD*%
D20*
%TO.C,C8*%
X143740000Y-113030000D03*
X140740000Y-113030000D03*
%TD*%
%TO.C,C7*%
G36*
G01*
X133450000Y-102780000D02*
X133250000Y-102780000D01*
G75*
G02*
X133150000Y-102680000I0J100000D01*
G01*
X133150000Y-102420000D01*
G75*
G02*
X133250000Y-102320000I100000J0D01*
G01*
X133450000Y-102320000D01*
G75*
G02*
X133550000Y-102420000I0J-100000D01*
G01*
X133550000Y-102680000D01*
G75*
G02*
X133450000Y-102780000I-100000J0D01*
G01*
G37*
G36*
G01*
X133450000Y-103420000D02*
X133250000Y-103420000D01*
G75*
G02*
X133150000Y-103320000I0J100000D01*
G01*
X133150000Y-103060000D01*
G75*
G02*
X133250000Y-102960000I100000J0D01*
G01*
X133450000Y-102960000D01*
G75*
G02*
X133550000Y-103060000I0J-100000D01*
G01*
X133550000Y-103320000D01*
G75*
G02*
X133450000Y-103420000I-100000J0D01*
G01*
G37*
%TD*%
D21*
%TO.C,C6*%
X90170000Y-110720000D03*
X90170000Y-107720000D03*
%TD*%
%TO.C,C5*%
G36*
G01*
X84990000Y-110580000D02*
X85190000Y-110580000D01*
G75*
G02*
X85290000Y-110680000I0J-100000D01*
G01*
X85290000Y-110940000D01*
G75*
G02*
X85190000Y-111040000I-100000J0D01*
G01*
X84990000Y-111040000D01*
G75*
G02*
X84890000Y-110940000I0J100000D01*
G01*
X84890000Y-110680000D01*
G75*
G02*
X84990000Y-110580000I100000J0D01*
G01*
G37*
G36*
G01*
X84990000Y-109940000D02*
X85190000Y-109940000D01*
G75*
G02*
X85290000Y-110040000I0J-100000D01*
G01*
X85290000Y-110300000D01*
G75*
G02*
X85190000Y-110400000I-100000J0D01*
G01*
X84990000Y-110400000D01*
G75*
G02*
X84890000Y-110300000I0J100000D01*
G01*
X84890000Y-110040000D01*
G75*
G02*
X84990000Y-109940000I100000J0D01*
G01*
G37*
%TD*%
%TO.C,C4*%
X55880000Y-104370000D03*
X55880000Y-101370000D03*
%TD*%
%TO.C,C3*%
G36*
G01*
X51970000Y-102960000D02*
X52170000Y-102960000D01*
G75*
G02*
X52270000Y-103060000I0J-100000D01*
G01*
X52270000Y-103320000D01*
G75*
G02*
X52170000Y-103420000I-100000J0D01*
G01*
X51970000Y-103420000D01*
G75*
G02*
X51870000Y-103320000I0J100000D01*
G01*
X51870000Y-103060000D01*
G75*
G02*
X51970000Y-102960000I100000J0D01*
G01*
G37*
G36*
G01*
X51970000Y-102320000D02*
X52170000Y-102320000D01*
G75*
G02*
X52270000Y-102420000I0J-100000D01*
G01*
X52270000Y-102680000D01*
G75*
G02*
X52170000Y-102780000I-100000J0D01*
G01*
X51970000Y-102780000D01*
G75*
G02*
X51870000Y-102680000I0J100000D01*
G01*
X51870000Y-102420000D01*
G75*
G02*
X51970000Y-102320000I100000J0D01*
G01*
G37*
%TD*%
%TO.C,C2*%
G36*
G01*
X74830000Y-111850000D02*
X75030000Y-111850000D01*
G75*
G02*
X75130000Y-111950000I0J-100000D01*
G01*
X75130000Y-112210000D01*
G75*
G02*
X75030000Y-112310000I-100000J0D01*
G01*
X74830000Y-112310000D01*
G75*
G02*
X74730000Y-112210000I0J100000D01*
G01*
X74730000Y-111950000D01*
G75*
G02*
X74830000Y-111850000I100000J0D01*
G01*
G37*
G36*
G01*
X74830000Y-111210000D02*
X75030000Y-111210000D01*
G75*
G02*
X75130000Y-111310000I0J-100000D01*
G01*
X75130000Y-111570000D01*
G75*
G02*
X75030000Y-111670000I-100000J0D01*
G01*
X74830000Y-111670000D01*
G75*
G02*
X74730000Y-111570000I0J100000D01*
G01*
X74730000Y-111310000D01*
G75*
G02*
X74830000Y-111210000I100000J0D01*
G01*
G37*
%TD*%
D20*
%TO.C,C1*%
X70080000Y-113030000D03*
X67080000Y-113030000D03*
%TD*%
M02*
