%TF.GenerationSoftware,KiCad,Pcbnew,(5.1.10)-1*%
%TF.CreationDate,2021-10-04T16:47:09-07:00*%
%TF.ProjectId,VFD,5646442e-6b69-4636-9164-5f7063625858,rev?*%
%TF.SameCoordinates,Original*%
%TF.FileFunction,Soldermask,Bot*%
%TF.FilePolarity,Negative*%
%FSLAX46Y46*%
G04 Gerber Fmt 4.6, Leading zero omitted, Abs format (unit mm)*
G04 Created by KiCad (PCBNEW (5.1.10)-1) date 2021-10-04 16:47:09*
%MOMM*%
%LPD*%
G01*
G04 APERTURE LIST*
%ADD10C,3.000000*%
%ADD11C,1.600000*%
%ADD12R,1.600000X1.600000*%
%ADD13C,1.400000*%
%ADD14O,1.950000X1.700000*%
G04 APERTURE END LIST*
D10*
%TO.C,*%
X119380000Y-133350000D03*
%TD*%
%TO.C,*%
X128270000Y-135890000D03*
%TD*%
%TO.C,*%
X123190000Y-135890000D03*
%TD*%
%TO.C,*%
X123190000Y-130810000D03*
%TD*%
%TO.C,*%
X128270000Y-130810000D03*
%TD*%
%TO.C,*%
X133350000Y-130810000D03*
%TD*%
%TO.C,*%
X133350000Y-135890000D03*
%TD*%
%TO.C,*%
X138430000Y-129540000D03*
%TD*%
%TO.C,*%
X138430000Y-124460000D03*
%TD*%
%TO.C,*%
X138430000Y-134620000D03*
%TD*%
%TO.C,*%
X143510000Y-134620000D03*
%TD*%
%TO.C,*%
X143510000Y-129540000D03*
%TD*%
%TO.C,*%
X143510000Y-124460000D03*
%TD*%
%TO.C,*%
X148590000Y-124460000D03*
%TD*%
%TO.C,*%
X148590000Y-129540000D03*
%TD*%
%TO.C,*%
X148590000Y-134620000D03*
%TD*%
%TO.C,*%
X153670000Y-134620000D03*
%TD*%
%TO.C,*%
X153670000Y-129540000D03*
%TD*%
%TO.C,*%
X153670000Y-124460000D03*
%TD*%
%TO.C,*%
X158750000Y-134620000D03*
%TD*%
%TO.C,*%
X158750000Y-129540000D03*
%TD*%
%TO.C,*%
X158750000Y-124460000D03*
%TD*%
%TO.C,*%
X171450000Y-104140000D03*
%TD*%
%TO.C,*%
X171450000Y-109220000D03*
%TD*%
%TO.C,*%
X171450000Y-114300000D03*
%TD*%
%TO.C,*%
X163830000Y-129540000D03*
%TD*%
%TO.C,*%
X163830000Y-124460000D03*
%TD*%
%TO.C,*%
X168910000Y-124460000D03*
%TD*%
%TO.C,*%
X166370000Y-104140000D03*
%TD*%
%TO.C,*%
X166370000Y-109220000D03*
%TD*%
%TO.C,*%
X166370000Y-114300000D03*
%TD*%
%TO.C,*%
X168910000Y-119380000D03*
%TD*%
%TO.C,*%
X163830000Y-119380000D03*
%TD*%
%TO.C,*%
X158750000Y-119380000D03*
%TD*%
%TO.C,*%
X153670000Y-119380000D03*
%TD*%
%TO.C,*%
X148590000Y-119380000D03*
%TD*%
%TO.C,*%
X143510000Y-119380000D03*
%TD*%
%TO.C,*%
X138430000Y-119380000D03*
%TD*%
D11*
%TO.C,REF\u002A\u002A*%
X107950000Y-105410000D03*
D12*
X115570000Y-133350000D03*
D11*
X115570000Y-130810000D03*
X115570000Y-128270000D03*
X115570000Y-125730000D03*
X115570000Y-123190000D03*
X115570000Y-120650000D03*
X115570000Y-118110000D03*
X115570000Y-115570000D03*
X115570000Y-113030000D03*
X115570000Y-110490000D03*
X115570000Y-107950000D03*
X115570000Y-105410000D03*
X113030000Y-105410000D03*
X110490000Y-105410000D03*
X105410000Y-105410000D03*
X102870000Y-105410000D03*
X100330000Y-105410000D03*
X100330000Y-107950000D03*
X100330000Y-110490000D03*
X100330000Y-113030000D03*
X100330000Y-115570000D03*
X100330000Y-118110000D03*
X100330000Y-120650000D03*
X100330000Y-123190000D03*
X100330000Y-125730000D03*
X100330000Y-128270000D03*
X100330000Y-130810000D03*
X100330000Y-133350000D03*
X113030000Y-123190000D03*
X102870000Y-123190000D03*
%TD*%
%TO.C,U4*%
X46990000Y-78740000D03*
X46990000Y-81280000D03*
X49530000Y-78740000D03*
X49530000Y-81280000D03*
X52070000Y-78740000D03*
X52070000Y-81280000D03*
X54610000Y-78740000D03*
X54610000Y-81280000D03*
X57150000Y-78740000D03*
X57150000Y-81280000D03*
X44450000Y-53340000D03*
X44450000Y-55880000D03*
X44450000Y-58420000D03*
X44450000Y-60960000D03*
X44450000Y-63500000D03*
X44450000Y-66040000D03*
X44450000Y-68580000D03*
X44450000Y-71120000D03*
X44450000Y-73660000D03*
X44450000Y-76200000D03*
X44450000Y-78740000D03*
X44450000Y-81280000D03*
X44450000Y-83820000D03*
X57150000Y-55880000D03*
X59690000Y-53340000D03*
X59690000Y-55880000D03*
X59690000Y-58420000D03*
X59690000Y-60960000D03*
X59690000Y-63500000D03*
X59690000Y-66040000D03*
X59690000Y-68580000D03*
X59690000Y-71120000D03*
X59690000Y-73660000D03*
X59690000Y-76200000D03*
X59690000Y-78740000D03*
X59690000Y-81280000D03*
X59690000Y-83820000D03*
X44450000Y-86360000D03*
X46990000Y-86360000D03*
X49530000Y-86360000D03*
X59690000Y-86360000D03*
X57150000Y-86360000D03*
X54610000Y-86360000D03*
X52070000Y-86360000D03*
%TD*%
D13*
%TO.C,U3*%
X162560000Y-99060000D03*
X160560000Y-99060000D03*
X158560000Y-99060000D03*
X152560000Y-99060000D03*
X150560000Y-99060000D03*
X148560000Y-99060000D03*
X146560000Y-99060000D03*
X144560000Y-99060000D03*
X142560000Y-99060000D03*
X140560000Y-99060000D03*
X138560000Y-99060000D03*
X136560000Y-99060000D03*
X134560000Y-99060000D03*
X132560000Y-99060000D03*
X130560000Y-99060000D03*
X128560000Y-99060000D03*
X126560000Y-99060000D03*
X124560000Y-99060000D03*
X94560000Y-99060000D03*
X92560000Y-99060000D03*
X90560000Y-99060000D03*
%TD*%
D14*
%TO.C,J3*%
X157480000Y-112910000D03*
X157480000Y-110410000D03*
X157480000Y-107910000D03*
G36*
G01*
X156755000Y-104560000D02*
X158205000Y-104560000D01*
G75*
G02*
X158455000Y-104810000I0J-250000D01*
G01*
X158455000Y-106010000D01*
G75*
G02*
X158205000Y-106260000I-250000J0D01*
G01*
X156755000Y-106260000D01*
G75*
G02*
X156505000Y-106010000I0J250000D01*
G01*
X156505000Y-104810000D01*
G75*
G02*
X156755000Y-104560000I250000J0D01*
G01*
G37*
%TD*%
%TO.C,J2*%
X96520000Y-114220000D03*
X96520000Y-111720000D03*
X96520000Y-109220000D03*
G36*
G01*
X95795000Y-105870000D02*
X97245000Y-105870000D01*
G75*
G02*
X97495000Y-106120000I0J-250000D01*
G01*
X97495000Y-107320000D01*
G75*
G02*
X97245000Y-107570000I-250000J0D01*
G01*
X95795000Y-107570000D01*
G75*
G02*
X95545000Y-107320000I0J250000D01*
G01*
X95545000Y-106120000D01*
G75*
G02*
X95795000Y-105870000I250000J0D01*
G01*
G37*
%TD*%
%TO.C,J1*%
X35560000Y-91520000D03*
X35560000Y-94020000D03*
X35560000Y-96520000D03*
X35560000Y-99020000D03*
X35560000Y-101520000D03*
G36*
G01*
X36285000Y-104870000D02*
X34835000Y-104870000D01*
G75*
G02*
X34585000Y-104620000I0J250000D01*
G01*
X34585000Y-103420000D01*
G75*
G02*
X34835000Y-103170000I250000J0D01*
G01*
X36285000Y-103170000D01*
G75*
G02*
X36535000Y-103420000I0J-250000D01*
G01*
X36535000Y-104620000D01*
G75*
G02*
X36285000Y-104870000I-250000J0D01*
G01*
G37*
%TD*%
M02*
