M48
; DRILL file {KiCad (5.1.10)-1} date 10/04/21 16:48:06
; FORMAT={-:-/ absolute / inch / decimal}
; #@! TF.CreationDate,2021-10-04T16:48:06-07:00
; #@! TF.GenerationSoftware,Kicad,Pcbnew,(5.1.10)-1
; #@! TF.FileFunction,Plated,1,2,PTH
FMAT,2
INCH
T1C0.0157
T2C0.0335
T3C0.0374
T4C0.0433
T5C0.0787
%
G90
G05
T1
X1.6Y-3.4
X2.45Y-2.9
X2.45Y-4.45
X2.55Y-4.35
X3.05Y-4.3
X3.15Y-3.95
X3.15Y-4.05
X3.35Y-3.9
X3.45Y-4.1
X3.8Y-3.95
X3.85Y-3.95
X3.95Y-4.05
X4.75Y-4.2
X4.95Y-4.2
X5.05Y-3.8
X5.15Y-3.7
X5.2Y-4.3
X5.35Y-3.95
X5.4Y-4.3
X5.4Y-4.4
X5.5Y-4.35
X5.75Y-3.7
X5.85Y-4.25
X5.95Y-4.1
X6.35Y-4.0
T2
X3.5654Y-3.9
X3.6441Y-3.9
X3.7228Y-3.9
X4.9039Y-3.9
X4.9827Y-3.9
X5.0614Y-3.9
X5.1402Y-3.9
X5.2189Y-3.9
X5.2976Y-3.9
X5.3764Y-3.9
X5.4551Y-3.9
X5.5339Y-3.9
X5.6126Y-3.9
X5.6913Y-3.9
X5.7701Y-3.9
X5.8488Y-3.9
X5.9276Y-3.9
X6.0063Y-3.9
X6.2425Y-3.9
X6.3213Y-3.9
X6.4Y-3.9
T3
X1.4Y-3.6031
X1.4Y-3.7016
X1.4Y-3.8
X1.4Y-3.8984
X1.4Y-3.9969
X1.4Y-4.0953
X3.8Y-4.2016
X3.8Y-4.3
X3.8Y-4.3984
X3.8Y-4.4969
X6.2Y-4.15
X6.2Y-4.2484
X6.2Y-4.3469
X6.2Y-4.4453
T4
X1.75Y-2.1
X1.75Y-2.2
X1.75Y-2.3
X1.75Y-2.4
X1.75Y-2.5
X1.75Y-2.6
X1.75Y-2.7
X1.75Y-2.8
X1.75Y-2.9
X1.75Y-3.0
X1.75Y-3.1
X1.75Y-3.2
X1.75Y-3.3
X1.75Y-3.4
X1.85Y-3.1
X1.85Y-3.2
X1.85Y-3.4
X1.95Y-3.1
X1.95Y-3.2
X1.95Y-3.4
X2.05Y-3.1
X2.05Y-3.2
X2.05Y-3.4
X2.15Y-3.1
X2.15Y-3.2
X2.15Y-3.4
X2.25Y-2.2
X2.25Y-3.1
X2.25Y-3.2
X2.25Y-3.4
X2.35Y-2.1
X2.35Y-2.2
X2.35Y-2.3
X2.35Y-2.4
X2.35Y-2.5
X2.35Y-2.6
X2.35Y-2.7
X2.35Y-2.8
X2.35Y-2.9
X2.35Y-3.0
X2.35Y-3.1
X2.35Y-3.2
X2.35Y-3.3
X2.35Y-3.4
X3.95Y-4.15
X3.95Y-4.25
X3.95Y-4.35
X3.95Y-4.45
X3.95Y-4.55
X3.95Y-4.65
X3.95Y-4.75
X3.95Y-4.85
X3.95Y-4.95
X3.95Y-5.05
X3.95Y-5.15
X3.95Y-5.25
X4.05Y-4.15
X4.05Y-4.85
X4.15Y-4.15
X4.25Y-4.15
X4.35Y-4.15
X4.45Y-4.15
X4.45Y-4.85
X4.55Y-4.15
X4.55Y-4.25
X4.55Y-4.35
X4.55Y-4.45
X4.55Y-4.55
X4.55Y-4.65
X4.55Y-4.75
X4.55Y-4.85
X4.55Y-4.95
X4.55Y-5.05
X4.55Y-5.15
X4.55Y-5.25
T5
X4.7Y-5.25
X4.85Y-5.15
X4.85Y-5.35
X5.05Y-5.15
X5.05Y-5.35
X5.25Y-5.15
X5.25Y-5.35
X5.45Y-4.7
X5.45Y-4.9
X5.45Y-5.1
X5.45Y-5.3
X5.65Y-4.7
X5.65Y-4.9
X5.65Y-5.1
X5.65Y-5.3
X5.85Y-4.7
X5.85Y-4.9
X5.85Y-5.1
X5.85Y-5.3
X6.05Y-4.7
X6.05Y-4.9
X6.05Y-5.1
X6.05Y-5.3
X6.25Y-4.7
X6.25Y-4.9
X6.25Y-5.1
X6.25Y-5.3
X6.45Y-4.7
X6.45Y-4.9
X6.45Y-5.1
X6.55Y-4.1
X6.55Y-4.3
X6.55Y-4.5
X6.65Y-4.7
X6.65Y-4.9
X6.75Y-4.1
X6.75Y-4.3
X6.75Y-4.5
T0
M30
